# xmcd
#
# Track frame offsets:
#	150
#	17773
#	33518
#	52390
#	70013
#	85758
#
# Disc length: 1395 seconds
#
# Revision: 1
# Processed by: cddbd v1.5.2PL0 Copyright (c) Steve Scherf et al.
# Submitted via: EZCDAudioConverter 4.0.4.2
#
DISCID=4a057106
DTITLE=초록물꼬기 - Mitssing You
DYEAR=2016
DGENRE=Pop
TTITLE0=Narae, TMDC - 걸어가요 둘이서
TTITLE1=A.mole - 나와 같다면
TTITLE2=Tacca - If i can send to you
TTITLE3=Narae, TMDC - 걸어가요 둘이서 (MR)
TTITLE4=A.mole - 나와 같다면 (MR)
TTITLE5=Tacca - If i can send to you (MR)
EXTD=
EXTT0=
EXTT1=
EXTT2=
EXTT3=
EXTT4=
EXTT5=
PLAYORDER=
